<svg width="900" height="900" fill="none" xmlns="http://www.w3.org/2000/svg"><path fill="#fff6160c" d="M395 798h8v7h-8z"/><path fill="#fff6161b" d="M403 798h15v7h-15zm67 0h15v7h-15z"/><path fill="#fff6160c" d="M485 798h8v7h-8zm-97 7h7v7h-7z"/><path fill="#fff6161b" d="M395 805h8v7h-8z"/><path fill="#fff61653" d="M403 805h15v7h-15z"/><path fill="#fff6161b" d="M418 805h7v7h-7z"/><path fill="#fff6160c" d="M425 805h38v7h-38z"/><path fill="#fff6161b" d="M463 805h7v7h-7z"/><path fill="#fff61653" d="M470 805h15v7h-15z"/><path fill="#fff6161b" d="M485 805h8v7h-8z"/><path fill="#fff6160c" d="M493 805h7v7h-7zm-112 7h7v7h-7z"/><path fill="#fff6161b" d="M388 812h7v7h-7z"/><path fill="#fff61653" d="M395 812h8v7h-8z"/><path fill="#ffff56ff" d="M403 812h15v7h-15z"/><path fill="#fff6161b" d="M418 812h7v7h-7z"/><path fill="#fff61653" d="M425 812h38v7h-38z"/><path fill="#fff6161b" d="M463 812h7v7h-7z"/><path fill="#ffff56ff" d="M470 812h15v7h-15z"/><path fill="#fff61653" d="M485 812h8v7h-8z"/><path fill="#fff6161b" d="M493 812h7v7h-7z"/><path fill="#fff6160c" d="M500 812h7v7h-7z"/><path fill="#fff6161b" d="M381 819h7v7h-7z"/><path fill="#fff61653" d="M388 819h7v7h-7z"/><path fill="#ffff56ff" d="M395 819h15v7h-15z"/><path fill="#fff61653" d="M410 819h15v7h-15z"/><path fill="#ffff56ff" d="M425 819h38v7h-38z"/><path fill="#fff61653" d="M463 819h15v7h-15z"/><path fill="#ffff56ff" d="M478 819h15v7h-15z"/><path fill="#fff61653" d="M493 819h7v7h-7z"/><path fill="#fff6161b" d="M500 819h7v7h-7zm-119 7h7v7h-7z"/><path fill="#fff61653" d="M388 826h7v7h-7z"/><path fill="#ffff56ff" d="M395 826h45v7h-45z"/><path fill="#fff61653" d="M440 826h8v7h-8z"/><path fill="#ffff56ff" d="M448 826h45v7h-45z"/><path fill="#fff61653" d="M493 826h7v7h-7z"/><path fill="#fff6161b" d="M500 826h7v7h-7z"/><path fill="#fff6160c" d="M381 833h7v7h-7z"/><path fill="#fff6161b" d="M388 833h7v7h-7z"/><path fill="#fff61653" d="M395 833h8v7h-8z"/><path fill="#ffff56ff" d="M403 833h30v7h-30z"/><path fill="#fff61653" d="M433 833h7v7h-7z"/><path fill="#fff6161b" d="M440 833h8v7h-8z"/><path fill="#fff61653" d="M448 833h7v7h-7z"/><path fill="#ffff56ff" d="M455 833h30v7h-30z"/><path fill="#fff61653" d="M485 833h8v7h-8z"/><path fill="#fff6161b" d="M493 833h7v7h-7z"/><path fill="#fff6160c" d="M500 833h7v7h-7zm-112 7h7v7h-7z"/><path fill="#fff6161b" d="M395 840h8v7h-8z"/><path fill="#fff61653" d="M403 840h30v7h-30z"/><path fill="#fff6161b" d="M433 840h7v7h-7z"/><path fill="#fff6160c" d="M440 840h8v7h-8z"/><path fill="#fff6161b" d="M448 840h7v7h-7z"/><path fill="#fff61653" d="M455 840h30v7h-30z"/><path fill="#fff6161b" d="M485 840h8v7h-8z"/><path fill="#fff6160c" d="M493 840h7v7h-7zm-98 7h8v7h-8z"/><path fill="#fff6161b" d="M403 847h30v7h-30zm52 0h30v7h-30z"/><path fill="#fff6160c" d="M485 847h8v7h-8z"/></svg>