<svg width="900" height="900" fill="none" xmlns="http://www.w3.org/2000/svg"><path fill="#fff64d19" d="M441 760h18v8h-18zm-17 8h17v8h-17z"/><path fill="#ffe42d5b" d="M441 768h18v8h-18z"/><path fill="#fff64d19" d="M459 768h8v8h-8zm-53 8h26v8h-26z"/><path fill="#ffe42d5b" d="M432 776h9v8h-9z"/><path fill="#f9e246ff" d="M441 776h18v8h-18z"/><path fill="#ffe42d5b" d="M459 776h8v8h-8z"/><path fill="#fff64d19" d="M467 776h18v8h-18zm-69 8h8v8h-8z"/><path fill="#ffe42d5b" d="M406 784h9v8h-9z"/><path fill="#f9e246ff" d="M415 784h9v8h-9z"/><path fill="#ffe42d5b" d="M424 784h8v8h-8z"/><path fill="#f9e246ff" d="M432 784h27v8h-27z"/><path fill="#ffe42d5b" d="M459 784h8v8h-8z"/><path fill="#f9e246ff" d="M467 784h9v8h-9z"/><path fill="#ffe42d5b" d="M476 784h9v8h-9z"/><path fill="#fff64d19" d="M485 784h8v8h-8zm-95 8h8v8h-8z"/><path fill="#ffe42d5b" d="M398 792h8v8h-8z"/><path fill="#f9e246ff" d="M406 792h9v8h-9z"/><path fill="#ffe42d5b" d="M415 792h17v8h-17z"/><path fill="#f9e246ff" d="M432 792h27v8h-27z"/><path fill="#ffe42d5b" d="M459 792h17v8h-17z"/><path fill="#f9e246ff" d="M476 792h9v8h-9z"/><path fill="#ffe42d5b" d="M485 792h8v8h-8z"/><path fill="#fff64d19" d="M493 792h7v8h-7zm-103 8h8v8h-8z"/><path fill="#ffe42d5b" d="M398 800h8v8h-8z"/><path fill="#f9e246ff" d="M406 800h18v8h-18z"/><path fill="#ffe42d5b" d="M424 800h17v8h-17z"/><path fill="#f9e246ff" d="M441 800h9v8h-9z"/><path fill="#ffe42d5b" d="M450 800h17v8h-17z"/><path fill="#f9e246ff" d="M467 800h18v8h-18z"/><path fill="#ffe42d5b" d="M485 800h8v8h-8z"/><path fill="#fff64d19" d="M493 800h7v8h-7zm-103 8h8v8h-8z"/><path fill="#ffe42d5b" d="M398 808h8v8h-8z"/><path fill="#f9e246ff" d="M406 808h26v8h-26z"/><path fill="#fff64dff" d="M432 808h27v8h-27z"/><path fill="#f9e246ff" d="M459 808h26v8h-26z"/><path fill="#ffe42d5b" d="M485 808h8v8h-8z"/><path fill="#fff64d19" d="M493 808h7v8h-7zm-95 8h8v8h-8z"/><path fill="#ffe42d5b" d="M406 816h18v8h-18z"/><path fill="#fff64dff" d="M424 816h8v8h-8z"/><path fill="#f9e246ff" d="M432 816h27v8h-27z"/><path fill="#fff64dff" d="M459 816h9v8h-9z"/><path fill="#ffe42d5b" d="M468 816h17v8h-17z"/><path fill="#fff64d19" d="M485 816h8v8h-8zm-79 8h9v8h-9z"/><path fill="#ffe42d5b" d="M415 824h9v8h-9z"/><path fill="#fff64dff" d="M424 824h8v8h-8z"/><path fill="#f9e246ff" d="M432 824h27v8h-27z"/><path fill="#fff64dff" d="M459 824h9v8h-9z"/><path fill="#ffe42d5b" d="M468 824h8v8h-8z"/><path fill="#fff64d19" d="M476 824h17v8h-17zm-70 8h9v8h-9z"/><path fill="#ffe42d5b" d="M415 832h9v8h-9z"/><path fill="#fff64dff" d="M424 832h8v8h-8z"/><path fill="#f9e246ff" d="M432 832h27v8h-27z"/><path fill="#fff64dff" d="M459 832h9v8h-9z"/><path fill="#ffe42d5b" d="M468 832h8v8h-8z"/><path fill="#fff64d19" d="M476 832h17v8h-17zm-70 8h9v8h-9z"/><path fill="#ffe42d5b" d="M415 840h9v8h-9z"/><path fill="#fff64dff" d="M424 840h8v8h-8z"/><path fill="#f9e246ff" d="M432 840h27v8h-27z"/><path fill="#fff64dff" d="M459 840h9v8h-9z"/><path fill="#ffe42d5b" d="M468 840h8v8h-8z"/><path fill="#fff64d19" d="M476 840h17v8h-17zm-70 8h9v8h-9z"/><path fill="#ffe42d5b" d="M415 848h9v8h-9z"/><path fill="#fff64dff" d="M424 848h8v8h-8z"/><path fill="#f9e246ff" d="M432 848h27v8h-27z"/><path fill="#fff64dff" d="M459 848h17v8h-17z"/><path fill="#ffe42d5b" d="M476 848h9v8h-9z"/><path fill="#fff64d19" d="M485 848h8v8h-8zm-79 8h9v8h-9z"/><path fill="#ffe42d5b" d="M415 856h9v8h-9z"/><path fill="#fff64dff" d="M424 856h8v8h-8z"/><path fill="#f9e246ff" d="M432 856h9v8h-9z"/><path fill="#fff64dff" d="M441 856h9v8h-9z"/><path fill="#f9e246ff" d="M450 856h9v8h-9z"/><path fill="#fff64dff" d="M459 856h26v8h-26z"/><path fill="#fff64d19" d="M485 856h8v8h-8zm-79 8h18v8h-18z"/><path fill="#ffe42d5b" d="M424 864h8v8h-8z"/><path fill="#f9e246ff" d="M432 864h9v8h-9z"/><path fill="#fff64dff" d="M441 864h9v8h-9z"/><path fill="#f9e246ff" d="M450 864h9v8h-9z"/><path fill="#fff64dff" d="M459 864h26v8h-26z"/><path fill="#fff64d19" d="M485 864h8v8h-8zm-79 8h9v8h-9z"/><path fill="#ffe42d5b" d="M415 872h9v8h-9z"/><path fill="#f9e246ff" d="M424 872h17v8h-17z"/><path fill="#ffe42d5b" d="M441 872h9v8h-9z"/><path fill="#f9e246ff" d="M450 872h18v8h-18z"/><path fill="#ffe42d5b" d="M468 872h17v8h-17z"/><path fill="#fff64d19" d="M485 872h8v8h-8zm-70 8h9v8h-9z"/><path fill="#ffe42d5b" d="M424 880h17v8h-17z"/><path fill="#fff64d19" d="M441 880h9v8h-9z"/><path fill="#ffe42d5b" d="M450 880h18v8h-18z"/><path fill="#fff64d19" d="M468 880h17v8h-17z"/></svg>