<svg width="900" height="900" fill="none" xmlns="http://www.w3.org/2000/svg"><path fill="#ffcf2035" d="M461 776h23v8h-23zm-15 8h15v8h-15z"/><path fill="#ffca3289" d="M461 784h8v8h-8z"/><path fill="#ffff86ff" d="M469 784h7v8h-7z"/><path fill="#ffca3289" d="M476 784h8v8h-8z"/><path fill="#ffcf2035" d="M484 784h7v8h-7zm-45 8h7v8h-7z"/><path fill="#ffff86ff" d="M446 792h8v8h-8z"/><path fill="#ffca3289" d="M454 792h7v8h-7z"/><path fill="#ffff86ff" d="M461 792h8v8h-8z"/><path fill="#ffca3289" d="M469 792h7v8h-7z"/><path fill="#ffff86ff" d="M476 792h8v8h-8z"/><path fill="#ffcf2035" d="M484 792h7v8h-7zm-38 8h8v8h-8z"/><path fill="#ffca3289" d="M454 800h15v8h-15z"/><path fill="#ffff86ff" d="M469 800h7v8h-7z"/><path fill="#ffca3289" d="M476 800h8v8h-8z"/><path fill="#ffcf2035" d="M484 800h7v8h-7zm-45 8h7v8h-7z"/><path fill="#ffca3289" d="M446 808h8v8h-8z"/><path fill="#ffff86ff" d="M454 808h7v8h-7z"/><path fill="#ffca3289" d="M461 808h15v8h-15z"/><path fill="#ffcf2035" d="M476 808h8v8h-8z"/><path fill="#ffff86ff" d="M484 808h7v8h-7z"/><path fill="#ffcf2035" d="M491 808h7v8h-7zm-60 8h8v8h-8z"/><path fill="#ffca3289" d="M439 816h7v8h-7z"/><path fill="#ffff86ff" d="M446 816h15v8h-15z"/><path fill="#ffca3289" d="M461 816h8v8h-8z"/><path fill="#ffcf2035" d="M469 816h7v8h-7zm15 0h7v8h-7zm-60 8h7v8h-7z"/><path fill="#ffca3289" d="M431 824h8v8h-8z"/><path fill="#ffff86ff" d="M439 824h15v8h-15z"/><path fill="#ffca3289" d="M454 824h7v8h-7z"/><path fill="#ffcf2035" d="M461 824h8v8h-8z"/><path fill="#ffff86ff" d="M469 824h7v8h-7z"/><path fill="#ffcf2035" d="M416 832h8v8h-8z"/><path fill="#ffca3289" d="M424 832h7v8h-7z"/><path fill="#ffff86ff" d="M431 832h15v8h-15z"/><path fill="#ffca3289" d="M446 832h8v8h-8z"/><path fill="#ffcf2035" d="M454 832h7v8h-7zm-45 8h7v8h-7z"/><path fill="#ffca3289" d="M416 840h8v8h-8z"/><path fill="#ffff86ff" d="M424 840h15v8h-15z"/><path fill="#ffca3289" d="M439 840h7v8h-7z"/><path fill="#ffcf2035" d="M446 840h8v8h-8zm-44 8h7v8h-7z"/><path fill="#ffca3289" d="M409 848h7v8h-7z"/><path fill="#ffff86ff" d="M416 848h15v8h-15z"/><path fill="#ffca3289" d="M431 848h8v8h-8z"/><path fill="#ffcf2035" d="M439 848h7v8h-7zm-44 8h7v8h-7z"/><path fill="#ffca3289" d="M402 856h7v8h-7z"/><path fill="#ffff86ff" d="M409 856h15v8h-15z"/><path fill="#ffca3289" d="M424 856h7v8h-7z"/><path fill="#ffcf2035" d="M431 856h8v8h-8zm-36 8h7v8h-7z"/><path fill="#ffca3289" d="M402 864h7v8h-7z"/><path fill="#ffff86ff" d="M409 864h7v8h-7z"/><path fill="#ffca3289" d="M416 864h8v8h-8z"/><path fill="#ffcf2035" d="M424 864h7v8h-7zm-22 8h7v8h-7z"/><path fill="#ffca3289" d="M409 872h7v8h-7z"/><path fill="#ffcf2035" d="M416 872h8v8h-8zm-7 8h8v8h-8z"/></svg>