<svg width="900" height="900" fill="none" xmlns="http://www.w3.org/2000/svg"><path fill="#ffff3c2d" d="M428 780h18v6h-18zm-7 6h7v6h-7z"/><path fill="#ffff3c70" d="M428 786h18v6h-18z"/><path fill="#ffff3c2d" d="M446 786h12v6h-12zm-31 6h6v6h-6z"/><path fill="#ffff3c70" d="M421 792h7v6h-7z"/><path fill="#ffff3cff" d="M428 792h18v6h-18z"/><path fill="#ffff3c70" d="M446 792h12v6h-12z"/><path fill="#ffff3c2d" d="M458 792h18v6h-18zm-43 6h6v6h-6z"/><path fill="#ffff3c70" d="M421 798h7v6h-7z"/><path fill="#ffff3cff" d="M428 798h30v6h-30z"/><path fill="#ffff3c70" d="M458 798h18v6h-18z"/><path fill="#ffff3c2d" d="M476 798h6v6h-6zm-61 6h6v6h-6z"/><path fill="#ffff3c70" d="M421 804h7v6h-7z"/><path fill="#ffff3cff" d="M428 804h6v6h-6z"/><path fill="#ffff3c70" d="M434 804h12v6h-12z"/><path fill="#ffff3cff" d="M446 804h30v6h-30z"/><path fill="#ffff3c70" d="M476 804h6v6h-6z"/><path fill="#ffff3c2d" d="M482 804h6v6h-6zm-67 6h6v6h-6z"/><path fill="#ffff3c70" d="M421 810h7v6h-7z"/><path fill="#ffff3cff" d="M428 810h6v6h-6z"/><path fill="#ffff3c70" d="M434 810h6v6h-6z"/><path fill="#ffff3c2d" d="M440 810h6v6h-6z"/><path fill="#ffff3c70" d="M446 810h12v6h-12z"/><path fill="#ffff3cff" d="M458 810h18v6h-18z"/><path fill="#ffff3c70" d="M476 810h6v6h-6z"/><path fill="#ffff3c2d" d="M482 810h6v6h-6zm-67 6h6v6h-6z"/><path fill="#ffff3c70" d="M421 816h7v6h-7z"/><path fill="#ffff3cff" d="M428 816h6v6h-6z"/><path fill="#ffff3c70" d="M434 816h6v6h-6z"/><path fill="#ffff3c2d" d="M440 816h18v6h-18z"/><path fill="#ffff3c70" d="M458 816h12v6h-12z"/><path fill="#ffff3cff" d="M470 816h6v6h-6z"/><path fill="#ffff3c70" d="M476 816h6v6h-6z"/><path fill="#ffff3c2d" d="M482 816h6v6h-6zm-67 6h6v6h-6z"/><path fill="#ffff3c70" d="M421 822h7v6h-7z"/><path fill="#ffff3cff" d="M428 822h6v6h-6z"/><path fill="#ffff3c70" d="M434 822h6v6h-6z"/><path fill="#ffff3c2d" d="M440 822h6v6h-6zm18 0h6v6h-6z"/><path fill="#ffff3c70" d="M464 822h6v6h-6z"/><path fill="#ffff3cff" d="M470 822h6v6h-6z"/><path fill="#ffff3c70" d="M476 822h6v6h-6z"/><path fill="#ffff3c2d" d="M482 822h6v6h-6zm-78 6h6v6h-6z"/><path fill="#ffff3c70" d="M410 828h18v6h-18z"/><path fill="#ffff3cff" d="M428 828h6v6h-6z"/><path fill="#ffff3c70" d="M434 828h6v6h-6z"/><path fill="#ffff3c2d" d="M440 828h6v6h-6zm18 0h6v6h-6z"/><path fill="#ffff3c70" d="M464 828h6v6h-6z"/><path fill="#ffff3cff" d="M470 828h6v6h-6z"/><path fill="#ffff3c70" d="M476 828h6v6h-6z"/><path fill="#ffff3c2d" d="M482 828h6v6h-6zm-84 6h6v6h-6z"/><path fill="#ffff3c70" d="M404 834h6v6h-6z"/><path fill="#ffff3cff" d="M410 834h24v6h-24z"/><path fill="#ffff3c70" d="M434 834h6v6h-6z"/><path fill="#ffff3c2d" d="M440 834h6v6h-6zm12 0h12v6h-12z"/><path fill="#ffff3c70" d="M464 834h6v6h-6z"/><path fill="#ffff3cff" d="M470 834h6v6h-6z"/><path fill="#ffff3c70" d="M476 834h6v6h-6z"/><path fill="#ffff3c2d" d="M482 834h6v6h-6z"/><path fill="#ffff3c70" d="M398 840h6v6h-6z"/><path fill="#ffff3cff" d="M404 840h30v6h-30z"/><path fill="#ffff3c70" d="M434 840h6v6h-6z"/><path fill="#ffff3c2d" d="M440 840h12v6h-12z"/><path fill="#ffff3c70" d="M452 840h18v6h-18z"/><path fill="#ffff3cff" d="M470 840h6v6h-6z"/><path fill="#ffff3c70" d="M476 840h6v6h-6z"/><path fill="#ffff3c2d" d="M482 840h6v6h-6z"/><path fill="#ffff3c70" d="M398 846h6v6h-6z"/><path fill="#ffff3cff" d="M404 846h30v6h-30z"/><path fill="#ffff3c70" d="M434 846h6v6h-6z"/><path fill="#ffff3c2d" d="M440 846h6v6h-6z"/><path fill="#ffff3c70" d="M446 846h6v6h-6z"/><path fill="#ffff3cff" d="M452 846h24v6h-24z"/><path fill="#ffff3c70" d="M476 846h6v6h-6z"/><path fill="#ffff3c2d" d="M482 846h6v6h-6zm-84 6h6v6h-6z"/><path fill="#ffff3c70" d="M404 852h6v6h-6z"/><path fill="#ffff3cff" d="M410 852h18v6h-18z"/><path fill="#ffff3c70" d="M428 852h6v6h-6zm12 0h6v6h-6z"/><path fill="#ffff3cff" d="M446 852h30v6h-30z"/><path fill="#ffff3c70" d="M476 852h6v6h-6z"/><path fill="#ffff3c2d" d="M482 852h6v6h-6zm-72 6h18v6h-18z"/><path fill="#ffff3c70" d="M440 858h6v6h-6z"/><path fill="#ffff3cff" d="M446 858h30v6h-30z"/><path fill="#ffff3c70" d="M476 858h6v6h-6z"/><path fill="#ffff3c2d" d="M482 858h6v6h-6zm-42 6h6v6h-6z"/><path fill="#ffff3c70" d="M446 864h6v6h-6z"/><path fill="#ffff3cff" d="M452 864h18v6h-18z"/><path fill="#ffff3c70" d="M470 864h6v6h-6z"/><path fill="#ffff3c2d" d="M476 864h6v6h-6zm-30 6h6v6h-6z"/><path fill="#ffff3c70" d="M452 870h18v6h-18z"/><path fill="#ffff3c2d" d="M470 870h6v6h-6zm-18 6h18v6h-18z"/></svg>